# xmcd CD database file
#
# Track frame offsets:
#	150
#	14960
#	31796
#	44309
#	56726
#	65153
#	75196
#
# Disc length: 1181 seconds
#
# Revision: 1
# Processed by: cddbd v1.5.2PL0 Copyright (c) Steve Scherf et al.
# Submitted via: CDex 1.51
#
DISCID=57049b07
DTITLE=Backdoor Stan - Backdoor Stan and His Busted Balls
DYEAR=2007
DGENRE=Blues
TTITLE0=Wild Ass Hunter
TTITLE1=Like a Cadillac
TTITLE2=What About You
TTITLE3=Chicken Head Christ
TTITLE4=Put Down the Bible (Get Drunk)
TTITLE5=It's a Hairy Thing
TTITLE6=Big Booty Boogie
EXTD=YEAR: 2007
EXTT0=
EXTT1=
EXTT2=
EXTT3=
EXTT4=
EXTT5=
EXTT6=
PLAYORDER=
